<svg xmlns="http://www.w3.org/2000/svg" viewBox="0 0 960 540" role="img" aria-labelledby="title desc">
  <title id="title">Tools and Skills project preview</title>
  <desc id="desc">A stylized screenshot preview of a dark Three.js tools and skills scene with gears charts and technology icons.</desc>
  <defs>
    <linearGradient id="bg" x1="0" x2="1" y1="0" y2="1">
      <stop offset="0" stop-color="#06040d"/>
      <stop offset="0.52" stop-color="#252021"/>
      <stop offset="1" stop-color="#4c4940"/>
    </linearGradient>
    <radialGradient id="glow" cx="50%" cy="45%" r="60%">
      <stop offset="0" stop-color="#e4bb41" stop-opacity="0.26"/>
      <stop offset="0.48" stop-color="#bda877" stop-opacity="0.12"/>
      <stop offset="1" stop-color="#06040d" stop-opacity="0"/>
    </radialGradient>
    <filter id="softShadow" x="-20%" y="-20%" width="140%" height="140%">
      <feDropShadow dx="0" dy="16" stdDeviation="14" flood-color="#000000" flood-opacity="0.34"/>
    </filter>
  </defs>
  <rect width="960" height="540" fill="url(#bg)"/>
  <rect width="960" height="540" fill="url(#glow)"/>
  <g opacity="0.24">
    <path d="M96 418 C246 354 414 352 566 388 C706 421 806 392 914 328" fill="none" stroke="#d5cfc0" stroke-width="2"/>
    <path d="M48 464 C190 418 330 418 474 450 C626 484 762 462 920 412" fill="none" stroke="#8e897d" stroke-width="2"/>
  </g>
  <text x="480" y="86" text-anchor="middle" fill="#d5cfc0" font-family="Arial, Helvetica, sans-serif" font-size="48" font-weight="800" letter-spacing="1">
    TOOLS &amp; SKILLS
  </text>
  <g transform="translate(148 134)" filter="url(#softShadow)">
    <rect x="0" y="0" width="198" height="132" rx="8" fill="#d5cfc0" opacity="0.95"/>
    <rect x="18" y="24" width="162" height="18" rx="3" fill="#252021" opacity="0.78"/>
    <rect x="18" y="56" width="118" height="14" rx="3" fill="#5f6081" opacity="0.8"/>
    <rect x="18" y="84" width="146" height="14" rx="3" fill="#bda877" opacity="0.9"/>
  </g>
  <g transform="translate(396 134)" filter="url(#softShadow)">
    <rect x="0" y="0" width="178" height="132" rx="8" fill="#252021" stroke="#d5cfc0" stroke-opacity="0.42"/>
    <rect x="26" y="76" width="18" height="34" fill="#ac473d"/>
    <rect x="58" y="48" width="18" height="62" fill="#e4bb41"/>
    <rect x="90" y="30" width="18" height="80" fill="#5f6081"/>
    <rect x="122" y="58" width="18" height="52" fill="#c95e2d"/>
  </g>
  <g transform="translate(650 128)" filter="url(#softShadow)">
    <circle cx="66" cy="66" r="54" fill="#8e897d"/>
    <circle cx="66" cy="66" r="27" fill="#252021"/>
    <g fill="#bda877">
      <rect x="58" y="0" width="16" height="32" rx="4"/>
      <rect x="58" y="100" width="16" height="32" rx="4"/>
      <rect x="0" y="58" width="32" height="16" rx="4"/>
      <rect x="100" y="58" width="32" height="16" rx="4"/>
      <rect x="16" y="16" width="28" height="14" rx="4" transform="rotate(-45 30 23)"/>
      <rect x="88" y="102" width="28" height="14" rx="4" transform="rotate(-45 102 109)"/>
      <rect x="88" y="16" width="28" height="14" rx="4" transform="rotate(45 102 23)"/>
      <rect x="16" y="102" width="28" height="14" rx="4" transform="rotate(45 30 109)"/>
    </g>
  </g>
  <g transform="translate(150 330)">
    <circle cx="48" cy="48" r="48" fill="#d5cfc0"/>
    <text x="48" y="60" text-anchor="middle" fill="#252021" font-family="Arial, Helvetica, sans-serif" font-size="28" font-weight="800">PY</text>
  </g>
  <g transform="translate(288 330)">
    <circle cx="48" cy="48" r="48" fill="#e4bb41"/>
    <text x="48" y="60" text-anchor="middle" fill="#252021" font-family="Arial, Helvetica, sans-serif" font-size="28" font-weight="800">JS</text>
  </g>
  <g transform="translate(426 330)">
    <circle cx="48" cy="48" r="48" fill="#5f6081"/>
    <text x="48" y="60" text-anchor="middle" fill="#f5f7f6" font-family="Arial, Helvetica, sans-serif" font-size="24" font-weight="800">SQL</text>
  </g>
  <g transform="translate(584 322)" filter="url(#softShadow)">
    <path d="M0 124 L52 36 L104 124 Z" fill="#bda877"/>
    <path d="M78 124 L130 8 L182 124 Z" fill="#8e897d"/>
    <path d="M152 124 L204 52 L256 124 Z" fill="#d5cfc0"/>
    <rect x="0" y="124" width="256" height="12" rx="6" fill="#252021" opacity="0.72"/>
  </g>
</svg>
