<svg xmlns="http://www.w3.org/2000/svg" viewBox="0 0 960 540" role="img" aria-labelledby="title desc">
  <title id="title">Night Ski project preview</title>
  <desc id="desc">A stylized screenshot preview of skiers moving through a snowy forest at night.</desc>
  <defs>
    <linearGradient id="sky" x1="0" x2="0" y1="0" y2="1">
      <stop offset="0" stop-color="#07111f"/>
      <stop offset="0.58" stop-color="#102238"/>
      <stop offset="1" stop-color="#d7e3f3"/>
    </linearGradient>
    <radialGradient id="lamp" cx="50%" cy="50%" r="50%">
      <stop offset="0" stop-color="#fff8cf" stop-opacity="0.9"/>
      <stop offset="0.42" stop-color="#9bd8ff" stop-opacity="0.32"/>
      <stop offset="1" stop-color="#9bd8ff" stop-opacity="0"/>
    </radialGradient>
    <filter id="softGlow">
      <feGaussianBlur stdDeviation="8"/>
    </filter>
  </defs>
  <rect width="960" height="540" fill="url(#sky)"/>
  <circle cx="185" cy="86" r="34" fill="#dceeff" opacity="0.82"/>
  <g fill="#dceeff" opacity="0.85">
    <circle cx="690" cy="74" r="2.5"/>
    <circle cx="790" cy="120" r="2"/>
    <circle cx="515" cy="58" r="1.8"/>
    <circle cx="345" cy="122" r="2.2"/>
    <circle cx="875" cy="58" r="1.6"/>
  </g>
  <path d="M0 390 C180 342 312 350 462 374 C628 401 743 384 960 322 L960 540 L0 540 Z" fill="#e7eef8"/>
  <path d="M0 440 C202 402 362 414 517 435 C694 459 800 438 960 396 L960 540 L0 540 Z" fill="#f6f9fd"/>
  <g opacity="0.88">
    <g transform="translate(86 174)">
      <rect x="16" y="98" width="12" height="152" rx="6" fill="#4b3528"/>
      <path d="M22 0 L-24 106 H68 Z" fill="#264736"/>
      <path d="M22 50 L-16 138 H60 Z" fill="#315941"/>
      <path d="M22 104 L-4 178 H48 Z" fill="#3c6b4c"/>
    </g>
    <g transform="translate(792 150) scale(1.18)">
      <rect x="16" y="98" width="12" height="152" rx="6" fill="#4b3528"/>
      <path d="M22 0 L-24 106 H68 Z" fill="#264736"/>
      <path d="M22 50 L-16 138 H60 Z" fill="#315941"/>
      <path d="M22 104 L-4 178 H48 Z" fill="#3c6b4c"/>
    </g>
    <g transform="translate(640 210) scale(0.82)">
      <rect x="16" y="98" width="12" height="152" rx="6" fill="#4b3528"/>
      <path d="M22 0 L-24 106 H68 Z" fill="#264736"/>
      <path d="M22 50 L-16 138 H60 Z" fill="#315941"/>
      <path d="M22 104 L-4 178 H48 Z" fill="#3c6b4c"/>
    </g>
  </g>
  <ellipse cx="456" cy="330" rx="195" ry="88" fill="url(#lamp)" filter="url(#softGlow)" opacity="0.72"/>
  <g transform="translate(410 294) rotate(-14)">
    <path d="M66 34 L207 14 L66 -4 Z" fill="#b9e9ff" opacity="0.34"/>
    <circle cx="38" cy="15" r="15" fill="#f05d5e"/>
    <rect x="22" y="30" width="84" height="8" rx="4" fill="#5b3a22"/>
    <rect x="20" y="43" width="92" height="5" rx="2.5" fill="#5b3a22"/>
    <path d="M8 56 C50 70 88 70 128 56" stroke="#7c8795" stroke-width="5" fill="none" stroke-linecap="round"/>
    <circle cx="62" cy="15" r="7" fill="#fff4bd"/>
  </g>
  <g transform="translate(574 382) rotate(9)">
    <path d="M55 28 L176 4 L52 -7 Z" fill="#ffe4a3" opacity="0.32"/>
    <circle cx="32" cy="12" r="13" fill="#3fbf76"/>
    <rect x="16" y="27" width="74" height="7" rx="3.5" fill="#5b3a22"/>
    <path d="M6 48 C42 60 80 60 116 48" stroke="#7c8795" stroke-width="4" fill="none" stroke-linecap="round"/>
    <circle cx="52" cy="12" r="6" fill="#fff4bd"/>
  </g>
  <path d="M300 384 C410 350 520 345 666 358" stroke="#b6c7da" stroke-width="4" fill="none" opacity="0.48"/>
  <path d="M492 450 C572 421 676 413 770 424" stroke="#b6c7da" stroke-width="4" fill="none" opacity="0.42"/>
</svg>
